<svg version="1.1" id="Layer_1" xmlns="http://www.w3.org/2000/svg" xmlns:xlink="http://www.w3.org/1999/xlink" x="0px" y="0px"
	 width="100%" viewBox="0 0 1136 1385" enable-background="new 0 0 1136 1385" xml:space="preserve">
<path fill="#00c894" opacity="1.000000" stroke="none" 
	d="
M209.241226,1209.834229 
	C205.176636,1208.582886 201.112045,1207.331665 196.578659,1205.626953 
	C179.354446,1195.804443 170.186310,1181.225220 166.982544,1162.498535 
	C167.078903,1162.380615 167.250458,1162.648804 167.250458,1162.648804 
	C167.250458,1162.648804 166.881775,1162.633423 166.871201,1162.213013 
	C166.564240,1159.863647 166.267853,1157.934814 166.050842,1155.630127 
	C166.023819,1154.499390 165.917404,1153.744507 165.874298,1152.551147 
	C165.908188,1136.756592 165.878799,1121.400513 165.944824,1105.581299 
	C165.987366,1088.070068 165.934448,1071.021851 165.972198,1053.739258 
	C166.003174,1052.679810 165.943512,1051.854492 165.981506,1050.567627 
	C166.031647,1036.064453 165.984131,1022.022766 166.026428,1007.708252 
	C166.058029,1006.296753 165.999832,1005.158142 166.038925,1003.596313 
	C166.074570,1001.443237 166.012894,999.713379 166.043839,997.590271 
	C166.155304,981.409058 166.203461,965.620911 166.184540,949.832947 
	C166.166626,934.886597 166.078308,919.940308 166.111618,904.533264 
	C166.144684,886.716919 166.087112,869.361267 166.145508,851.824219 
	C166.183380,851.093079 166.105270,850.543396 166.117645,849.532959 
	C166.173553,834.389832 166.138977,819.707397 166.222260,804.645386 
	C166.259613,800.500488 166.179092,796.735352 166.188370,792.519226 
	C166.219467,788.389343 166.160767,784.710449 166.219604,780.640503 
	C166.354446,779.083496 166.385834,777.917419 166.387024,776.751343 
	C166.519669,647.799988 166.648560,518.848694 166.781128,389.897339 
	C166.849289,323.597107 166.923798,257.296875 167.111206,190.615814 
	C167.602493,187.368759 167.978027,184.502533 168.525635,181.467041 
	C168.803513,180.530273 168.909302,179.762756 169.207855,178.525543 
	C169.221542,176.699463 169.042435,175.343079 168.863327,173.986710 
	C168.863327,173.986710 168.914062,173.966736 169.325943,174.282043 
	C169.815338,174.021225 169.892868,173.445084 169.970398,172.868942 
	C169.970383,172.868942 169.970978,172.941925 170.239517,173.194687 
	C171.361984,171.642395 172.215897,169.837357 173.305695,167.795807 
	C178.335846,158.666565 185.284195,151.882812 194.268692,146.665192 
	C202.080261,144.386597 209.540207,142.191147 217.458832,140.079010 
	C335.781830,140.168625 453.646118,140.170380 571.510437,140.184952 
	C595.306946,140.187897 619.103516,140.239349 643.282715,140.426422 
	C683.357239,141.986557 722.689087,146.249496 761.485535,155.030289 
	C806.351318,165.184738 848.997864,180.752838 887.225220,206.868408 
	C932.913635,238.081268 965.287048,280.280548 988.011414,330.308136 
	C997.476135,351.144806 1004.354004,372.861725 1010.136597,395.335022 
	C1010.649963,397.411621 1011.183167,399.103180 1011.640015,401.140320 
	C1012.050476,403.323181 1012.537476,405.160522 1012.998535,407.428162 
	C1014.562500,416.878967 1016.124817,425.904541 1017.778625,434.913300 
	C1017.977112,435.994812 1018.672302,436.985138 1019.137268,438.017700 
	C1019.137268,438.017700 1019.032043,438.005066 1018.732117,438.287781 
	C1018.650757,440.056580 1018.869263,441.542664 1019.013062,443.261200 
	C1019.173218,444.261658 1019.408142,445.029694 1019.571594,446.207520 
	C1020.704895,459.420410 1021.909668,472.223480 1023.026245,485.362427 
	C1023.223328,495.671143 1023.769531,505.644867 1023.734253,515.616577 
	C1023.678345,531.405884 1023.233154,547.193787 1022.847046,563.372925 
	C1021.401123,579.700134 1020.041626,595.635071 1018.734497,611.574341 
	C1018.424866,615.350220 1018.291199,619.140625 1018.076660,622.924316 
	C1017.956177,623.752197 1017.835754,624.580078 1017.552917,626.108643 
	C1016.579407,631.544189 1015.768311,636.279114 1014.821777,641.410400 
	C1014.435974,644.361938 1014.185547,646.917114 1013.935181,649.472351 
	C1013.935181,649.472351 1014.097290,649.648743 1013.697693,649.928162 
	C1011.913757,657.159180 1010.464294,664.098755 1009.175537,671.068054 
	C1008.624023,674.050720 1008.407349,677.095276 1008.038513,680.111755 
	C1008.038513,680.111755 1008.003784,680.042175 1007.876221,679.820679 
	C1007.475220,680.407471 1007.201660,681.215820 1006.750244,682.438599 
	C1006.743896,683.594666 1006.915344,684.336426 1007.086792,685.078125 
	C1007.086853,685.078125 1007.026428,684.998657 1006.739685,684.781128 
	C1001.048462,701.393860 995.643982,718.224243 990.045715,735.346863 
	C984.126221,746.994873 978.517212,758.411682 972.625488,769.680603 
	C969.686646,775.301697 966.230225,780.652222 963.007812,786.125122 
	C963.007812,786.125122 963.001892,785.997742 962.715576,785.926270 
	C958.631165,791.276367 954.833008,796.697815 951.034912,802.119263 
	C951.034851,802.119263 951.028931,802.030762 950.744812,801.849915 
	C948.651306,804.153259 946.841858,806.637390 945.032410,809.121582 
	C945.032410,809.121582 945.026428,809.032410 944.747192,808.846313 
	C941.002319,812.801697 937.536560,816.943237 934.070801,821.084717 
	C934.070801,821.084717 934.029541,820.993408 933.815918,820.710449 
	C929.076538,824.990662 924.550842,829.553833 920.025146,834.116943 
	C920.025085,834.116943 920.021484,834.002686 919.678345,833.900269 
	C919.229553,834.244934 919.123840,834.691956 919.018066,835.138977 
	C919.018127,835.138977 919.020264,835.053711 918.779785,834.781616 
	C915.024597,837.715393 911.509827,840.921265 907.995117,844.127136 
	C907.995117,844.127136 907.995483,844.004456 907.706055,843.882690 
	C904.618469,846.216064 901.820251,848.671265 899.021973,851.126343 
	C899.021973,851.126343 899.019348,851.030518 898.732483,850.839294 
	C890.959473,855.736938 883.473328,860.825806 875.681152,865.981567 
	C875.245117,866.391663 875.114929,866.734924 874.984802,867.078186 
	C874.984802,867.078186 874.943298,866.949280 874.865967,867.166382 
	C873.976074,867.779968 873.163513,868.176392 872.350952,868.572754 
	C872.094299,868.696960 871.837585,868.821045 870.961243,869.218018 
	C869.341614,870.207336 868.341675,870.923767 867.341675,871.640137 
	C867.100647,871.748840 866.859558,871.857605 865.968750,872.184143 
	C864.118225,873.196472 862.917419,873.990967 861.716614,874.785522 
	C861.254944,875.089294 860.793274,875.393066 859.400269,876.100525 
	C858.077698,876.927429 857.686401,877.350647 857.295166,877.773926 
	C857.106873,877.854126 856.918640,877.934326 856.043945,878.004761 
	C848.712769,881.277527 842.050659,884.525696 835.442993,887.881287 
	C834.505798,888.357178 833.834106,889.355835 833.039612,890.112610 
	C833.039612,890.112610 833.028320,890.041504 832.751465,889.777710 
	C831.003296,890.197510 829.532104,890.881165 827.723633,891.641235 
	C827.287659,892.170105 827.188843,892.622559 827.089966,893.074951 
	C827.089966,893.074951 827.007263,893.028137 826.817078,892.669067 
	C809.433350,898.801819 792.239807,905.293579 774.683105,911.788391 
	C766.120483,914.397034 757.921082,917.002625 749.721741,919.608276 
	C748.100952,920.100342 746.480164,920.592346 744.153931,920.864014 
	C735.627014,922.412109 727.805481,924.180603 719.589600,925.935791 
	C717.137878,926.394836 715.080688,926.867249 712.656616,927.304810 
	C710.853455,927.610779 709.417236,927.951660 707.681946,928.253357 
	C706.203003,928.649109 705.023071,929.083923 703.843201,929.518738 
	C701.150146,930.020325 698.457153,930.521912 694.964478,931.075195 
	C692.199463,931.265808 690.223633,931.319397 688.270142,931.556824 
	C670.529480,933.713074 652.792664,935.901306 635.054749,938.080200 
	C633.937073,938.390076 632.819458,938.699951 630.951660,938.988525 
	C617.116882,939.649414 604.032349,940.331543 590.947754,941.013794 
	C587.995850,941.344116 585.043884,941.674500 581.126404,941.976746 
	C565.788391,942.346436 551.415894,942.744324 536.576538,943.072754 
	C528.994812,943.245361 521.880066,943.487305 514.512451,943.606140 
	C512.838074,943.654297 511.416473,943.825562 509.997437,943.998413 
	C510.000000,944.000000 509.996704,943.995483 509.671570,944.245239 
	C509.523163,947.961304 509.699921,951.427551 509.876678,954.893860 
	C509.876678,954.893860 510.056030,955.248291 509.833618,955.898193 
	C509.766541,960.037292 509.921875,963.526611 509.986145,967.250488 
	C509.981079,968.308411 510.067078,969.131714 510.089203,970.421997 
	C510.289642,977.935730 510.553955,984.982483 510.749634,992.271423 
	C510.741394,992.670166 510.801697,992.826721 510.796600,993.442261 
	C511.179718,1006.938293 511.628265,1019.975159 511.984589,1033.283203 
	C511.983582,1034.683838 512.074829,1035.813477 512.103516,1037.409302 
	C512.377747,1046.253052 512.714600,1054.630737 512.960083,1063.229614 
	C512.958862,1064.388062 513.048950,1065.325073 513.078125,1066.709229 
	C513.365723,1076.442749 513.714111,1085.729248 513.970276,1095.364746 
	C514.281494,1113.332764 514.891846,1130.950317 515.021484,1148.571289 
	C515.121094,1162.112671 512.157532,1174.959106 504.401306,1186.382812 
	C502.861328,1188.651001 501.428040,1190.991699 499.945587,1193.299072 
	C499.195709,1194.165405 498.445770,1195.031616 497.144623,1196.053467 
	C496.158203,1196.738525 495.722992,1197.268066 495.287811,1197.797485 
	C494.680786,1198.176270 494.073792,1198.555054 493.058716,1199.237549 
	C492.215271,1199.937256 491.779846,1200.333252 491.344421,1200.729370 
	C491.084473,1200.821167 490.824524,1200.912842 489.994537,1201.333740 
	C488.132660,1202.328125 486.840851,1202.993164 485.549011,1203.658203 
	C481.091461,1205.457764 476.633881,1207.257446 471.321777,1208.892090 
	C466.638245,1209.205933 462.809235,1209.685059 458.515625,1210.109619 
	C411.217926,1210.063477 364.384766,1210.056641 317.551636,1210.086182 
	C288.388153,1210.104614 259.224701,1210.177979 229.607559,1210.093506 
	C222.516327,1209.918213 215.878784,1209.876343 209.241226,1209.834229 
z"/>
<path fill="#EBE9E9" opacity="1.000000" stroke="none" 
	d="
M1010.156433,394.950012 
	C1004.354004,372.861725 997.476135,351.144806 988.011414,330.308136 
	C965.287048,280.280548 932.913635,238.081268 887.225220,206.868408 
	C848.997864,180.752838 806.351318,165.184738 761.485535,155.030289 
	C722.689087,146.249496 683.357239,141.986557 643.308960,140.145706 
	C642.967529,139.519669 642.982605,139.332321 642.997620,139.144974 
	C653.700073,139.424194 664.402527,139.703415 675.786621,140.276428 
	C677.633972,141.046631 678.799744,141.523071 679.965454,141.999512 
	C692.623779,142.652817 705.325684,142.869827 717.923340,144.129898 
	C725.004089,144.838150 731.892639,147.360764 738.908203,148.879684 
	C741.758362,149.496780 744.767883,149.381119 747.615540,150.006104 
	C762.442444,153.260330 777.524292,155.732727 791.975281,160.222275 
	C809.102173,165.543137 826.009033,171.896210 842.390381,179.195267 
	C856.588196,185.521408 870.572388,192.822311 883.444458,201.485229 
	C895.677917,209.718369 907.356018,218.880539 918.398071,229.002563 
	C931.402100,240.923187 942.994751,253.872482 953.854797,267.549591 
	C959.605530,274.792053 964.117615,283.033600 969.021545,290.928101 
	C973.453186,298.062317 977.896057,305.208862 981.884644,312.592712 
	C984.975342,318.314453 987.572876,324.329010 990.033203,330.358856 
	C994.192749,340.553253 998.405884,350.747681 1001.974243,361.155426 
	C1005.705383,372.037811 1008.702393,383.171875 1011.666931,394.598267 
	C1010.927856,394.983734 1010.542175,394.966888 1010.156433,394.950012 
z"/>
<path fill="#D2D4DD" opacity="1.000000" stroke="none" 
	d="
M166.995453,190.996643 
	C166.923798,257.296875 166.849289,323.597107 166.781128,389.897339 
	C166.648560,518.848694 166.519669,647.799988 166.387024,776.751343 
	C166.385834,777.917419 166.354446,779.083496 165.978088,780.634521 
	C165.619034,781.019409 165.136124,781.002991 165.136124,781.002991 
	C165.076141,774.346252 164.964462,767.689453 164.963699,761.032715 
	C164.942291,574.183105 164.927155,387.333466 164.965317,200.483856 
	C164.965897,197.604721 165.646332,194.725739 166.295212,191.410645 
	C166.580933,190.974625 166.995453,190.996643 166.995453,190.996643 
z"/>
<path fill="#FFF9F1" opacity="1.000000" stroke="none" 
	d="
M230.061249,1210.226685 
	C259.224701,1210.177979 288.388153,1210.104614 317.551636,1210.086182 
	C364.384766,1210.056641 411.217926,1210.063477 458.659149,1210.309082 
	C459.504303,1210.803955 459.787476,1210.962036 460.116760,1211.037476 
	C458.613586,1211.362549 457.110565,1211.971069 455.607239,1211.971802 
	C380.728363,1212.007568 305.849457,1211.991333 230.533417,1211.636963 
	C230.084625,1210.937866 230.072937,1210.582275 230.061249,1210.226685 
z"/>
<path fill="#ECEDED" opacity="1.000000" stroke="none" 
	d="
M642.537720,139.072571 
	C642.982605,139.332321 642.967529,139.519669 642.926208,139.987732 
	C619.103516,140.239349 595.306946,140.187897 571.510437,140.184952 
	C453.646118,140.170380 335.781830,140.168625 217.460037,139.868164 
	C217.002563,139.573990 217.003372,139.152283 217.003372,139.152283 
	C218.331467,139.097946 219.659561,138.996078 220.987656,138.996048 
	C361.351013,138.992477 501.714386,138.996552 642.537720,139.072571 
z"/>
<path fill="#D2D4DD" opacity="1.000000" stroke="none" 
	d="
M166.020966,904.994019 
	C166.078308,919.940308 166.166626,934.886597 166.184540,949.832947 
	C166.203461,965.620911 166.155304,981.409058 165.848831,997.591125 
	C165.561218,997.985168 165.171295,997.993530 165.171295,997.993530 
	C165.112823,967.302002 165.054367,936.610413 165.292755,905.452026 
	C165.589584,904.985107 166.020950,904.994019 166.020966,904.994019 
z"/>
<path fill="#D2D4DD" opacity="1.000000" stroke="none" 
	d="
M500.305145,1193.181030 
	C501.428040,1190.991699 502.861328,1188.651001 504.401306,1186.382812 
	C512.157532,1174.959106 515.121094,1162.112671 515.021484,1148.571289 
	C514.891846,1130.950317 514.281494,1113.332764 514.163208,1095.354980 
	C514.448364,1094.996338 514.834717,1094.993042 514.834717,1094.993042 
	C515.241150,1115.983521 516.020996,1136.975952 515.918762,1157.963989 
	C515.854004,1171.273315 510.067932,1182.755005 501.594513,1192.874390 
	C501.435852,1193.063965 500.981262,1193.005737 500.305145,1193.181030 
z"/>
<path fill="#D2D4DD" opacity="1.000000" stroke="none" 
	d="
M1022.952698,562.982300 
	C1023.233154,547.193787 1023.678345,531.405884 1023.734253,515.616577 
	C1023.769531,505.644867 1023.223328,495.671143 1023.200562,485.345123 
	C1023.463196,484.991913 1023.813477,484.984741 1023.813477,484.984741 
	C1024.233643,507.307129 1024.705933,529.628784 1025.017944,551.952698 
	C1025.065186,555.332092 1024.365967,558.721863 1023.710815,562.549622 
	C1023.409790,562.992371 1022.952698,562.982300 1022.952698,562.982300 
z"/>
<path fill="#DCDDE4" opacity="1.000000" stroke="none" 
	d="
M635.267456,938.448425 
	C652.792664,935.901306 670.529480,933.713074 688.270142,931.556824 
	C690.223633,931.319397 692.199463,931.265808 694.502441,931.102173 
	C675.489746,937.003967 655.543091,938.356140 635.267456,938.448425 
z"/>
<path fill="#E2E3E6" opacity="1.000000" stroke="none" 
	d="
M1022.847046,563.372925 
	C1022.952698,562.982300 1023.409790,562.992371 1023.638306,562.997314 
	C1022.938843,577.379639 1022.135803,591.766602 1021.018921,606.129272 
	C1020.596008,611.568176 1019.449280,616.950806 1018.354553,622.641724 
	C1018.291199,619.140625 1018.424866,615.350220 1018.734497,611.574341 
	C1020.041626,595.635071 1021.401123,579.700134 1022.847046,563.372925 
z"/>
<path fill="#E2E3E6" opacity="1.000000" stroke="none" 
	d="
M165.971451,1156.005859 
	C166.267853,1157.934814 166.564240,1159.863647 166.895752,1162.205566 
	C166.930878,1162.618408 166.886185,1162.616455 166.886185,1162.616455 
	C170.186310,1181.225220 179.354446,1195.804443 196.214935,1205.443604 
	C193.087326,1204.196899 189.320312,1203.299438 186.717545,1201.052856 
	C177.157822,1192.801636 169.431854,1183.120117 166.762177,1170.360229 
	C165.838882,1165.947266 165.584656,1161.394287 165.299713,1156.462891 
	C165.574600,1156.020386 165.971451,1156.005859 165.971451,1156.005859 
z"/>
<path fill="#E2E3E6" opacity="1.000000" stroke="none" 
	d="
M963.337524,786.006653 
	C966.230225,780.652222 969.686646,775.301697 972.625488,769.680603 
	C978.517212,758.411682 984.126221,746.994873 990.171570,735.339966 
	C990.491211,735.040710 990.741333,735.008423 990.741333,735.008423 
	C990.719604,735.955139 990.994324,737.039062 990.629456,737.826904 
	C987.500305,744.584595 984.498596,751.419189 980.981567,757.974792 
	C976.865173,765.647339 972.325317,773.096252 967.844177,780.567139 
	C966.693359,782.485718 965.072205,784.122131 963.337524,786.006653 
z"/>
<path fill="#DCDDE4" opacity="1.000000" stroke="none" 
	d="
M775.046265,911.785400 
	C792.239807,905.293579 809.433350,898.801819 826.851990,892.701782 
	C824.245056,894.679443 821.563782,896.675537 818.555298,897.781555 
	C804.353394,903.002502 790.061890,907.979736 775.400879,912.784790 
	C775.026428,912.279541 775.042053,912.032837 775.046265,911.785400 
z"/>
<path fill="#DCDDE4" opacity="1.000000" stroke="none" 
	d="
M990.881042,734.662842 
	C990.741333,735.008423 990.491211,735.040710 990.365356,735.047607 
	C995.643982,718.224243 1001.048462,701.393860 1006.781494,684.808472 
	C1005.421692,691.707886 1003.942871,698.424500 1001.993103,705.001404 
	C999.412598,713.706177 996.521362,722.321228 993.610168,730.922913 
	C993.177856,732.200195 991.904846,733.192932 990.881042,734.662842 
z"/>
<path fill="#D2D4DD" opacity="1.000000" stroke="none" 
	d="
M537.043457,943.142151 
	C551.415894,942.744324 565.788391,942.346436 580.583984,942.004517 
	C578.983704,942.733521 576.967712,943.961487 574.935669,943.988770 
	C562.972839,944.149109 551.006287,944.029663 538.369263,943.916443 
	C537.428528,943.648193 537.210510,943.419434 537.043457,943.142151 
z"/>
<path fill="#D2D4DD" opacity="1.000000" stroke="none" 
	d="
M165.849396,1106.044434 
	C165.878799,1121.400513 165.908188,1136.756592 165.726898,1152.550049 
	C165.516190,1152.987549 165.221100,1152.991943 165.221100,1152.991943 
	C165.162552,1145.732544 165.077652,1138.473145 165.052490,1131.213623 
	C165.024445,1123.120483 165.050705,1115.026978 165.289703,1106.482910 
	C165.526062,1106.032104 165.849396,1106.044434 165.849396,1106.044434 
z"/>
<path fill="#DCDDE4" opacity="1.000000" stroke="none" 
	d="
M591.009521,941.227905 
	C604.032349,940.331543 617.116882,939.649414 630.599609,939.019592 
	C630.008484,939.734802 629.039062,940.940674 628.026917,940.977722 
	C616.136108,941.412415 604.238892,941.677856 592.342651,941.953796 
	C591.923035,941.963562 591.495239,941.620544 591.009521,941.227905 
z"/>
<path fill="#E2E3E6" opacity="1.000000" stroke="none" 
	d="
M1023.892578,484.523560 
	C1023.813477,484.984741 1023.463196,484.991913 1023.288818,485.009216 
	C1021.909668,472.223480 1020.704895,459.420410 1019.636353,445.839661 
	C1019.544312,444.384277 1019.316040,443.706512 1019.087769,443.028748 
	C1018.869263,441.542664 1018.650757,440.056580 1018.739380,438.235321 
	C1020.046204,441.176056 1021.676147,444.403503 1021.932251,447.736511 
	C1022.861206,459.825958 1023.329529,471.950836 1023.892578,484.523560 
z"/>
<path fill="#ECEDED" opacity="1.000000" stroke="none" 
	d="
M193.917053,146.748322 
	C185.284195,151.882812 178.335846,158.666565 172.998352,167.774139 
	C172.249924,167.979156 172.044754,167.969360 171.839569,167.959549 
	C174.238266,160.420227 179.229462,154.786011 185.299362,150.041672 
	C187.368088,148.424713 189.831970,147.313293 192.684418,146.059998 
	C193.509171,146.310684 193.730347,146.510406 193.917053,146.748322 
z"/>
<path fill="#DCDDE4" opacity="1.000000" stroke="none" 
	d="
M1019.051270,437.564819 
	C1018.672302,436.985138 1017.977112,435.994812 1017.778625,434.913300 
	C1016.124817,425.904541 1014.562500,416.878967 1013.206238,407.426544 
	C1013.439880,406.994598 1013.855347,406.992584 1013.855347,406.992584 
	C1017.856750,416.642456 1018.699036,426.828339 1019.051270,437.564819 
z"/>
<path fill="#E2E3E6" opacity="1.000000" stroke="none" 
	d="
M512.076782,1033.012085 
	C511.628265,1019.975159 511.179718,1006.938293 511.127838,993.422241 
	C511.745392,992.931091 511.966248,992.919189 512.187073,992.907349 
	C512.475281,994.438232 513.006165,995.968018 513.013184,997.500183 
	C513.065979,1008.996155 513.015442,1020.492493 513.008484,1032.484619 
	C513.019775,1032.980469 512.946655,1033.050171 512.729248,1033.038574 
	C512.511902,1033.026978 512.076782,1033.012085 512.076782,1033.012085 
z"/>
<path fill="#E2E3E6" opacity="1.000000" stroke="none" 
	d="
M1008.400391,679.963745 
	C1008.407349,677.095276 1008.624023,674.050720 1009.175537,671.068054 
	C1010.464294,664.098755 1011.913757,657.159180 1013.622192,650.021240 
	C1012.218323,659.828491 1010.490356,669.822144 1008.400391,679.963745 
z"/>
<path fill="#EBE9E9" opacity="1.000000" stroke="none" 
	d="
M194.268692,146.665192 
	C193.730347,146.510406 193.509171,146.310684 193.056046,146.042511 
	C192.858566,145.935883 192.968918,145.454681 193.217789,145.104309 
	C193.684128,144.575348 193.860321,144.362549 193.995224,144.115570 
	C201.204391,141.713715 208.068573,137.820892 216.554779,139.075775 
	C217.003372,139.152283 217.002563,139.573990 217.001343,139.784851 
	C209.540207,142.191147 202.080261,144.386597 194.268692,146.665192 
z"/>
<path fill="#D2D4DD" opacity="1.000000" stroke="none" 
	d="
M774.683105,911.788391 
	C775.042053,912.032837 775.026428,912.279541 774.999939,912.710938 
	C769.486267,914.694275 764.006592,916.610168 758.442383,918.237488 
	C755.863525,918.991821 753.120178,919.184265 750.086548,919.619812 
	C757.921082,917.002625 766.120483,914.397034 774.683105,911.788391 
z"/>
<path fill="#D2D4DD" opacity="1.000000" stroke="none" 
	d="
M719.984009,925.949097 
	C727.805481,924.180603 735.627014,922.412109 743.716187,920.856689 
	C737.520996,922.720642 731.043091,924.315918 724.607727,926.067810 
	C723.267578,926.432617 722.084961,927.376404 720.429077,927.659180 
	C720.013611,926.826355 719.998840,926.387756 719.984009,925.949097 
z"/>
<path fill="#E2E3E6" opacity="1.000000" stroke="none" 
	d="
M875.987122,865.914673 
	C883.473328,860.825806 890.959473,855.736938 898.780396,850.839478 
	C897.640259,852.610474 896.397827,854.538696 894.647766,855.705872 
	C888.769897,859.625977 882.711060,863.274780 876.361694,866.705261 
	C876.002014,866.383118 875.987122,865.914612 875.987122,865.914673 
z"/>
<path fill="#E2E3E6" opacity="1.000000" stroke="none" 
	d="
M166.111603,904.533264 
	C166.020950,904.994019 165.589584,904.985107 165.373886,904.989136 
	C165.112442,887.640686 165.066681,870.288147 165.307404,852.475098 
	C165.593872,852.014587 166.029526,852.005676 166.029526,852.005676 
	C166.087112,869.361267 166.144684,886.716919 166.111603,904.533264 
z"/>
<path fill="#CDCDD6" opacity="1.000000" stroke="none" 
	d="
M165.944824,1105.581299 
	C165.849396,1106.044434 165.526062,1106.032104 165.364716,1106.020020 
	C165.146255,1088.978394 165.089111,1071.948608 165.284973,1054.448730 
	C165.537979,1053.978394 165.881531,1053.973633 165.881531,1053.973633 
	C165.934448,1071.021851 165.987366,1088.070068 165.944824,1105.581299 
z"/>
<path fill="#D2D4DD" opacity="1.000000" stroke="none" 
	d="
M833.424072,890.076538 
	C833.834106,889.355835 834.505798,888.357178 835.442993,887.881287 
	C842.050659,884.525696 848.712769,881.277527 855.737000,878.002686 
	C853.677795,879.707581 851.385803,881.688599 848.769043,883.041016 
	C843.881775,885.566833 838.805908,887.727722 833.424072,890.076538 
z"/>
<path fill="#E2E3E6" opacity="1.000000" stroke="none" 
	d="
M536.576538,943.072754 
	C537.210510,943.419434 537.428528,943.648193 537.908569,943.939453 
	C536.475769,944.381226 534.835388,944.975037 533.187378,944.997253 
	C525.774109,945.097229 518.358704,945.034912 510.478668,944.762756 
	C510.013306,944.494385 509.996704,943.995483 509.996704,943.995483 
	C509.996704,943.995483 510.000000,944.000000 510.343872,944.027344 
	C512.046936,943.946167 513.406128,943.837646 514.765320,943.729187 
	C521.880066,943.487305 528.994812,943.245361 536.576538,943.072754 
z"/>
<path fill="#E2E3E6" opacity="1.000000" stroke="none" 
	d="
M166.104401,805.025024 
	C166.138977,819.707397 166.173553,834.389832 165.900604,849.528625 
	C165.593094,849.985046 165.159012,849.991821 165.159012,849.991821 
	C165.108032,835.305847 165.057037,820.619934 165.313721,805.476318 
	C165.621399,805.018738 166.104401,805.025024 166.104401,805.025024 
z"/>
<path fill="#E2E3E6" opacity="1.000000" stroke="none" 
	d="
M513.051453,1063.008301 
	C512.714600,1054.630737 512.377747,1046.253052 512.298340,1037.135498 
	C512.686035,1035.280273 512.816345,1034.165283 512.946655,1033.050171 
	C512.946655,1033.050171 513.019775,1032.980469 513.056213,1032.945557 
	C513.411621,1034.554321 513.988953,1036.195312 514.005798,1037.842285 
	C514.088013,1045.883423 514.020630,1053.926147 513.793579,1062.456787 
	C513.404419,1062.966431 513.227905,1062.987427 513.051453,1063.008301 
z"/>
<path fill="#CDCDD6" opacity="1.000000" stroke="none" 
	d="
M165.936600,1007.981079 
	C165.984131,1022.022766 166.031647,1036.064453 165.808990,1050.564453 
	C165.538803,1051.022705 165.194107,1051.006104 165.194107,1051.006104 
	C165.134338,1036.977539 165.074570,1022.948975 165.284760,1008.452515 
	C165.554703,1007.984619 165.936600,1007.981079 165.936600,1007.981079 
z"/>
<path fill="#CDCDD6" opacity="1.000000" stroke="none" 
	d="
M229.607574,1210.093506 
	C230.072937,1210.582275 230.084625,1210.937866 230.073517,1211.560547 
	C223.332016,1211.500122 216.409607,1213.596313 209.597580,1209.986572 
	C215.878784,1209.876343 222.516327,1209.918213 229.607574,1210.093506 
z"/>
<path fill="#E2E3E6" opacity="1.000000" stroke="none" 
	d="
M510.818237,992.029297 
	C510.553955,984.982483 510.289642,977.935730 510.312927,970.306152 
	C511.041199,969.483643 511.481842,969.243896 511.922485,969.004211 
	C511.962524,976.359863 512.002563,983.715576 511.703857,991.547729 
	C511.182800,992.025879 511.000549,992.027588 510.818237,992.029297 
z"/>
<path fill="#E2E3E6" opacity="1.000000" stroke="none" 
	d="
M951.357300,802.001770 
	C954.833008,796.697815 958.631165,791.276367 962.779297,785.922974 
	C959.312744,791.288757 955.496277,796.586548 951.357300,802.001770 
z"/>
<path fill="#E2E3E6" opacity="1.000000" stroke="none" 
	d="
M920.378540,834.074463 
	C924.550842,829.553833 929.076538,824.990662 933.847168,820.750000 
	C929.638672,825.392334 925.185303,829.712158 920.378540,834.074463 
z"/>
<path fill="#DCDDE4" opacity="1.000000" stroke="none" 
	d="
M1014.957153,641.014038 
	C1015.768311,636.279114 1016.579407,631.544189 1017.253174,626.660278 
	C1017.090698,631.047180 1017.065674,635.583069 1016.647827,640.553223 
	C1015.822388,640.996277 1015.389771,641.005127 1014.957153,641.014038 
z"/>
<path fill="#E2E3E6" opacity="1.000000" stroke="none" 
	d="
M934.425964,821.062500 
	C937.536560,816.943237 941.002319,812.801697 944.791870,808.845032 
	C941.670898,813.033325 938.226013,817.036804 934.425964,821.062500 
z"/>
<path fill="#E2E3E6" opacity="1.000000" stroke="none" 
	d="
M514.905701,1094.529297 
	C514.834717,1094.993042 514.448364,1094.996338 514.255432,1095.006104 
	C513.714111,1085.729248 513.365723,1076.442749 513.521362,1066.632690 
	C514.322815,1066.072021 514.620300,1066.034912 514.917847,1065.997803 
	C514.937439,1075.353760 514.957092,1084.709717 514.905701,1094.529297 
z"/>
<path fill="#E2E3E6" opacity="1.000000" stroke="none" 
	d="
M908.354736,844.071350 
	C911.509827,840.921265 915.024597,837.715393 918.822388,834.785034 
	C915.641724,838.045532 912.178040,841.030518 908.354736,844.071350 
z"/>
<path fill="#ECEDED" opacity="1.000000" stroke="none" 
	d="
M167.111206,190.615814 
	C166.995453,190.996643 166.580933,190.974625 166.373459,190.980469 
	C166.828598,185.425583 167.491226,179.864822 168.508575,174.145386 
	C169.042435,175.343079 169.221542,176.699463 168.975647,178.800690 
	C168.484955,180.242477 168.419250,180.939377 168.353546,181.636292 
	C167.978027,184.502533 167.602493,187.368759 167.111206,190.615814 
z"/>
<path fill="#D2D4DD" opacity="1.000000" stroke="none" 
	d="
M166.222260,804.645386 
	C166.104401,805.025024 165.621399,805.018738 165.379974,805.012207 
	C165.085709,801.305542 165.032898,797.605408 165.299286,793.442261 
	C165.618515,792.979370 166.098572,792.970154 166.098572,792.970154 
	C166.179092,796.735352 166.259613,800.500488 166.222260,804.645386 
z"/>
<path fill="#E2E3E6" opacity="1.000000" stroke="none" 
	d="
M899.387085,851.075439 
	C901.820251,848.671265 904.618469,846.216064 907.767395,843.882812 
	C905.329407,846.344666 902.540710,848.684570 899.387085,851.075439 
z"/>
<path fill="#CDCDD6" opacity="1.000000" stroke="none" 
	d="
M460.569397,1211.036621 
	C459.787476,1210.962036 459.504303,1210.803955 459.123718,1210.363525 
	C462.809235,1209.685059 466.638245,1209.205933 470.927155,1208.844482 
	C470.053711,1209.672119 468.783752,1210.769409 467.372009,1211.000610 
	C465.308716,1211.338257 463.143677,1211.054565 460.569397,1211.036621 
z"/>
<path fill="#E2E3E6" opacity="1.000000" stroke="none" 
	d="
M510.077209,967.015869 
	C509.921875,963.526611 509.766541,960.037292 509.775146,956.088013 
	C510.640472,959.127075 511.341858,962.626221 511.675781,966.582764 
	C510.897919,967.032104 510.487579,967.023987 510.077209,967.015869 
z"/>
<path fill="#E2E3E6" opacity="1.000000" stroke="none" 
	d="
M945.351685,809.003296 
	C946.841858,806.637390 948.651306,804.153259 950.789185,801.848755 
	C949.302124,804.313965 947.486572,806.599487 945.351685,809.003296 
z"/>
<path fill="#E2E3E6" opacity="1.000000" stroke="none" 
	d="
M1014.821777,641.410400 
	C1015.389771,641.005127 1015.822388,640.996277 1016.579468,640.992432 
	C1016.133911,643.661682 1015.363892,646.325867 1014.264526,649.231201 
	C1014.185547,646.917114 1014.435974,644.361938 1014.821777,641.410400 
z"/>
<path fill="#DCDDE4" opacity="1.000000" stroke="none" 
	d="
M719.589600,925.935791 
	C719.998840,926.387756 720.013611,926.826355 720.014648,927.593994 
	C717.934021,928.297302 715.867126,928.671631 713.393921,928.718811 
	C712.999573,928.040955 713.011536,927.690308 713.023438,927.339661 
	C715.080688,926.867249 717.137878,926.394836 719.589600,925.935791 
z"/>
<path fill="#E2E3E6" opacity="1.000000" stroke="none" 
	d="
M166.188370,792.519226 
	C166.098572,792.970154 165.618515,792.979370 165.378555,792.986938 
	C165.094025,789.301819 165.049454,785.609131 165.070496,781.459717 
	C165.136124,781.002991 165.619034,781.019409 165.860550,781.025452 
	C166.160767,784.710449 166.219467,788.389343 166.188370,792.519226 
z"/>
<path fill="#EBE9E9" opacity="1.000000" stroke="none" 
	d="
M1013.932617,406.575439 
	C1013.855347,406.992584 1013.439880,406.994598 1013.232178,406.996216 
	C1012.537476,405.160522 1012.050476,403.323181 1011.613403,400.553833 
	C1011.453064,398.873871 1011.242859,398.125885 1011.069885,397.387390 
	C1011.107056,397.396881 1011.053223,397.333557 1011.515381,397.494293 
	C1012.283203,397.769226 1012.588806,397.883423 1012.894409,397.997589 
	C1013.266235,400.717804 1013.638062,403.438019 1013.932617,406.575439 
z"/>
<path fill="#D2D4DD" opacity="1.000000" stroke="none" 
	d="
M509.671570,944.245239 
	C509.996704,943.995483 510.013306,944.494385 510.010864,944.743958 
	C509.935150,947.994202 509.861938,950.994873 509.832703,954.444702 
	C509.699921,951.427551 509.523163,947.961304 509.671570,944.245239 
z"/>
<path fill="#DCDDE4" opacity="1.000000" stroke="none" 
	d="
M1012.969116,397.665466 
	C1012.588806,397.883423 1012.283203,397.769226 1011.558350,397.492859 
	C1011.139160,397.330688 1011.032715,397.377899 1011.032715,397.377899 
	C1011.242859,398.125885 1011.453064,398.873871 1011.689819,400.208313 
	C1011.183167,399.103180 1010.649963,397.411621 1010.136597,395.335052 
	C1010.542175,394.966888 1010.927856,394.983734 1011.603149,394.999146 
	C1012.276367,395.776245 1012.660095,396.554810 1012.969116,397.665466 
z"/>
<path fill="#D2D4DD" opacity="1.000000" stroke="none" 
	d="
M861.440430,874.735779 
	C862.917419,873.990967 864.118225,873.196472 865.577698,872.250122 
	C864.278992,872.960938 862.721619,873.823486 861.440430,874.735779 
z"/>
<path fill="#DCDDE4" opacity="1.000000" stroke="none" 
	d="
M704.152588,929.512085 
	C705.023071,929.083923 706.203003,928.649109 707.671570,928.362732 
	C707.960266,928.511230 707.983215,928.729736 707.983215,928.729736 
	C706.809448,928.988281 705.635681,929.246826 704.152588,929.512085 
z"/>
<path fill="#D2D4DD" opacity="1.000000" stroke="none" 
	d="
M485.357819,1203.509644 
	C486.840851,1202.993164 488.132660,1202.328125 489.586731,1201.402100 
	C488.221497,1201.881104 486.694061,1202.621094 485.357819,1203.509644 
z"/>
<path fill="#D2D4DD" opacity="1.000000" stroke="none" 
	d="
M171.509109,168.102783 
	C172.044754,167.969360 172.249924,167.979156 172.762451,168.010651 
	C172.215897,169.837357 171.361984,171.642395 170.203247,173.190613 
	C170.325195,171.371170 170.751923,169.808594 171.509109,168.102783 
z"/>
<path fill="#D2D4DD" opacity="1.000000" stroke="none" 
	d="
M509.986145,967.250488 
	C510.487579,967.023987 510.897919,967.032104 511.615417,967.019165 
	C511.970215,967.445679 512.017944,967.893188 511.994080,968.672485 
	C511.481842,969.243896 511.041199,969.483643 510.376831,969.839233 
	C510.067078,969.131714 509.981079,968.308411 509.986145,967.250488 
z"/>
<path fill="#D2D4DD" opacity="1.000000" stroke="none" 
	d="
M166.026428,1007.708252 
	C165.936600,1007.981079 165.554703,1007.984619 165.363800,1007.989380 
	C165.124573,1006.928223 165.076263,1005.862183 165.292603,1004.406311 
	C165.557251,1004.016418 165.941620,1004.019531 165.941620,1004.019531 
	C165.999832,1005.158142 166.058029,1006.296753 166.026428,1007.708252 
z"/>
<path fill="#D2D4DD" opacity="1.000000" stroke="none" 
	d="
M514.991577,1065.667236 
	C514.620300,1066.034912 514.322815,1066.072021 513.582153,1066.185669 
	C513.048950,1065.325073 512.958862,1064.388062 512.960083,1063.229614 
	C513.227905,1062.987427 513.404419,1062.966431 513.845825,1062.915771 
	C514.110779,1062.886108 514.044556,1062.923706 514.154724,1063.111328 
	C514.398865,1063.611816 514.618103,1063.844238 514.922485,1063.996216 
	C514.970093,1064.442993 515.017700,1064.889771 514.991577,1065.667236 
z"/>
<path fill="#D2D4DD" opacity="1.000000" stroke="none" 
	d="
M708.389709,928.844055 
	C707.983215,928.729736 707.960266,928.511230 707.970642,928.401855 
	C709.417236,927.951660 710.853455,927.610779 712.656616,927.304810 
	C713.011536,927.690308 712.999573,928.040955 712.993896,928.654724 
	C711.598877,928.931335 710.197510,928.944824 708.389709,928.844055 
z"/>
<path fill="#D2D4DD" opacity="1.000000" stroke="none" 
	d="
M867.474731,871.385254 
	C868.341675,870.923767 869.341614,870.207336 870.546448,869.322144 
	C869.703491,869.812256 868.655640,870.471252 867.474731,871.385254 
z"/>
<path fill="#D2D4DD" opacity="1.000000" stroke="none" 
	d="
M165.119766,1051.375977 
	C165.194107,1051.006104 165.538803,1051.022705 165.711319,1051.026001 
	C165.943512,1051.854492 166.003174,1052.679810 165.972198,1053.739258 
	C165.881531,1053.973633 165.537979,1053.978394 165.366364,1053.985962 
	C165.144958,1053.244263 165.095184,1052.494995 165.119766,1051.375977 
z"/>
<path fill="#CDCDD6" opacity="1.000000" stroke="none" 
	d="
M166.038925,1003.596313 
	C165.941620,1004.019531 165.557251,1004.016418 165.365128,1004.011475 
	C165.120132,1002.285034 165.067276,1000.563538 165.092850,998.417725 
	C165.171295,997.993530 165.561218,997.985168 165.756226,997.984314 
	C166.012894,999.713379 166.074570,1001.443237 166.038925,1003.596313 
z"/>
<path fill="#D2D4DD" opacity="1.000000" stroke="none" 
	d="
M828.060852,891.564819 
	C829.532104,890.881165 831.003296,890.197510 832.786377,889.786133 
	C832.354736,890.731018 831.611206,891.403687 830.002930,891.949707 
	C828.779114,891.736938 828.419983,891.650879 828.060852,891.564819 
z"/>
<path fill="#ECEDED" opacity="1.000000" stroke="none" 
	d="
M679.909729,141.643555 
	C678.799744,141.523071 677.633972,141.046631 676.244019,140.346436 
	C677.297852,140.510986 678.575928,140.899292 679.909729,141.643555 
z"/>
<path fill="#D2D4DD" opacity="1.000000" stroke="none" 
	d="
M872.464478,868.301147 
	C873.163513,868.176392 873.976074,867.779968 874.929443,867.142700 
	C874.239502,867.277771 873.408752,867.653687 872.464478,868.301147 
z"/>
<path fill="#D2D4DD" opacity="1.000000" stroke="none" 
	d="
M165.078369,850.324646 
	C165.159012,849.991821 165.593094,849.985046 165.810120,849.989380 
	C166.105270,850.543396 166.183380,851.093079 166.145508,851.824219 
	C166.029526,852.005676 165.593872,852.014587 165.376007,852.011414 
	C165.104675,851.557983 165.051193,851.107727 165.078369,850.324646 
z"/>
<path fill="#DCDDE4" opacity="1.000000" stroke="none" 
	d="
M1006.928101,682.024231 
	C1007.201660,681.215820 1007.475220,680.407471 1007.912476,679.834839 
	C1008.050415,680.501282 1008.024597,680.932007 1007.699829,681.686768 
	C1007.400818,682.010681 1006.928162,682.024231 1006.928101,682.024231 
z"/>
<path fill="#D2D4DD" opacity="1.000000" stroke="none" 
	d="
M857.460571,877.624084 
	C857.686401,877.350647 858.077698,876.927429 858.604858,876.333740 
	C858.369080,876.600342 857.997559,877.037292 857.460571,877.624084 
z"/>
<path fill="#DCDDE4" opacity="1.000000" stroke="none" 
	d="
M827.723633,891.641235 
	C828.419983,891.650879 828.779114,891.736938 829.676453,891.954102 
	C829.410889,892.406433 828.607117,892.727661 827.446655,893.061951 
	C827.188843,892.622559 827.287659,892.170105 827.723633,891.641235 
z"/>
<path fill="#CDCDD6" opacity="1.000000" stroke="none" 
	d="
M165.130615,1153.364380 
	C165.221100,1152.991943 165.516190,1152.987549 165.663589,1152.988525 
	C165.917404,1153.744507 166.023819,1154.499390 166.050842,1155.630127 
	C165.971451,1156.005859 165.574600,1156.020386 165.376038,1156.019775 
	C165.131683,1155.258423 165.085922,1154.497681 165.130615,1153.364380 
z"/>
<path fill="#E2E3E6" opacity="1.000000" stroke="none" 
	d="
M1006.750244,682.438599 
	C1006.928162,682.024231 1007.400818,682.010681 1007.637268,682.005859 
	C1007.836060,682.941833 1007.798340,683.882629 1007.423706,684.950806 
	C1006.915344,684.336426 1006.743896,683.594666 1006.750244,682.438599 
z"/>
<path fill="#D2D4DD" opacity="1.000000" stroke="none" 
	d="
M495.499634,1197.648438 
	C495.722992,1197.268066 496.158203,1196.738525 496.856232,1196.105591 
	C496.649902,1196.501099 496.180695,1197.000244 495.499634,1197.648438 
z"/>
<path fill="#D2D4DD" opacity="1.000000" stroke="none" 
	d="
M491.485229,1200.557129 
	C491.779846,1200.333252 492.215271,1199.937256 492.711304,1199.324219 
	C492.389984,1199.532959 492.007996,1199.958984 491.485229,1200.557129 
z"/>
<path fill="#D2D4DD" opacity="1.000000" stroke="none" 
	d="
M510.749664,992.271423 
	C511.000549,992.027588 511.182800,992.025879 511.638245,992.012329 
	C511.911407,992.000488 512.061829,992.450317 512.124451,992.678833 
	C511.966248,992.919189 511.745392,992.931091 511.193268,992.963135 
	C510.801697,992.826721 510.741394,992.670166 510.749664,992.271423 
z"/>
<path fill="#E2E3E6" opacity="1.000000" stroke="none" 
	d="
M514.950928,1063.717773 
	C514.618103,1063.844238 514.398865,1063.611816 514.166931,1063.075195 
	C514.372437,1063.047363 514.675903,1063.243286 514.950928,1063.717773 
z"/>
<path fill="#D2D4DD" opacity="1.000000" stroke="none" 
	d="
M875.681152,865.981506 
	C875.987122,865.914612 876.002014,866.383118 876.005127,866.617493 
	C875.838257,866.892578 875.668335,866.933350 875.241577,867.026123 
	C875.114929,866.734924 875.245117,866.391663 875.681152,865.981506 
z"/>
<path fill="#ECEDED" opacity="1.000000" stroke="none" 
	d="
M169.702789,172.945633 
	C169.892868,173.445084 169.815338,174.021225 169.302460,174.268188 
	C169.056458,173.633453 169.245819,173.327896 169.702789,172.945633 
z"/>
<path fill="#E2E3E6" opacity="1.000000" stroke="none" 
	d="
M919.289062,835.046814 
	C919.123840,834.691956 919.229553,834.244934 919.735535,833.899292 
	C919.943909,834.318665 919.752014,834.636658 919.289062,835.046814 
z"/>
<path fill="#ECEDED" opacity="1.000000" stroke="none" 
	d="
M193.719055,144.077805 
	C193.860321,144.362549 193.684128,144.575348 193.293320,144.869324 
	C193.227615,144.669800 193.335266,144.354919 193.719055,144.077805 
z"/>
<path fill="#D2D4DD" opacity="1.000000" stroke="none" 
	d="
M514.512451,943.606140 
	C513.406128,943.837646 512.046936,943.946167 510.341309,944.025757 
	C511.416473,943.825562 512.838074,943.654297 514.512451,943.606140 
z"/>
<path fill="#D2D4DD" opacity="1.000000" stroke="none" 
	d="
M512.729248,1033.038574 
	C512.816345,1034.165283 512.686035,1035.280273 512.360840,1036.669189 
	C512.074829,1035.813477 511.983582,1034.683838 511.984589,1033.283203 
	C512.076782,1033.012085 512.511902,1033.026978 512.729248,1033.038574 
z"/>
<path fill="#D2D4DD" opacity="1.000000" stroke="none" 
	d="
M168.525650,181.467041 
	C168.419250,180.939377 168.484955,180.242477 168.782867,179.270416 
	C168.909302,179.762756 168.803513,180.530273 168.525650,181.467041 
z"/>
<path fill="#DCDDE4" opacity="1.000000" stroke="none" 
	d="
M1019.013062,443.261200 
	C1019.316040,443.706512 1019.544312,444.384277 1019.707825,445.429871 
	C1019.408142,445.029694 1019.173218,444.261658 1019.013062,443.261200 
z"/>
<path fill="#D2D4DD" opacity="1.000000" stroke="none" 
	d="
M166.982544,1162.498535 
	C166.886185,1162.616455 166.930878,1162.618408 166.906326,1162.625977 
	C166.881775,1162.633423 167.250458,1162.648804 167.250458,1162.648804 
	C167.250458,1162.648804 167.078903,1162.380615 166.982544,1162.498535 
z"/>
<path fill="#00c894" opacity="1.000000" stroke="none" 
	d="
M1011.069885,397.387390 
	C1011.032715,397.377899 1011.139160,397.330688 1011.096191,397.332123 
	C1011.053223,397.333557 1011.107056,397.396881 1011.069885,397.387390 
z"/>
</svg>